<svg width="180" height="54" viewBox="0 0 180 54" fill="none" xmlns="http://www.w3.org/2000/svg" role="img" aria-labelledby="title desc">
  <title id="title">Talko Logo</title>
  <desc id="desc">Talko real-time chat app logo with a chat bubble and signal mark.</desc>
  <rect width="180" height="54" rx="14" fill="#0F172A"/>
  <path d="M23 18.75C23 15.5744 25.5744 13 28.75 13H47.25C50.4256 13 53 15.5744 53 18.75V29.25C53 32.4256 50.4256 35 47.25 35H39.548L32.947 40.0608C32.2912 40.5634 31.3438 40.0958 31.3438 39.2696V35H28.75C25.5744 35 23 32.4256 23 29.25V18.75Z" fill="#22C55E"/>
  <circle cx="33" cy="24" r="2.4" fill="#0F172A"/>
  <circle cx="38" cy="24" r="2.4" fill="#0F172A"/>
  <circle cx="43" cy="24" r="2.4" fill="#0F172A"/>
  <path d="M55 16.5C58.3137 20.0891 58.3137 27.9109 55 31.5" stroke="#38BDF8" stroke-width="3" stroke-linecap="round"/>
  <path d="M61 12C66.3333 18 66.3333 30 61 36" stroke="#38BDF8" stroke-width="3" stroke-linecap="round" opacity="0.78"/>
  <text x="76" y="34" fill="#F8FAFC" font-family="Inter, Arial, sans-serif" font-size="27" font-weight="800" letter-spacing="0">Talko</text>
</svg>
